# xmcd
#
# Track frame offsets: 
#        150
#        8735
#        23602
#        36595
#        51545
#        64792
#        88785
#        105715
#        110717
#        118560
#        129690
#        136772
#        145197
#        157037
#        195847
#        206505
#        220357
#        226770
#        241797
#        255422
#        267685
#        281320
#        295457
#        309687
#        322897
#
# Disc length: 4515 seconds
#
# Revision: 0
# Processed by: cddbd v1.5.2PL0 Copyright (c) Steve Scherf et al.
# Submitted via: ExactAudioCopy v0.99pb4
#
DISCID=7111a119
DTITLE=Frank Sinatra - The Legendary Standards - CD 2
DYEAR=2004
DGENRE=Swing
TTITLE0=Somebody Loves Me
TTITLE1=I've Got A Crush On You
TTITLE2=Embraceable You
TTITLE3=Someone To Watch Over Me
TTITLE4=Oh Bess, Oh Where Is My Bess
TTITLE5=Porgy And Bess Medley 1
TTITLE6=It Ain't Necessarily So
TTITLE7=S'Wonderful
TTITLE8=A Foggy Day
TTITLE9=I've Got A Crush On You
TTITLE10=Night And Day
TTITLE11=Soon
TTITLE12=Embracable You
TTITLE13=Porgy and Bess Medley 2
TTITLE14=Someone To Watch Over Me
TTITLE15=Love Walked In
TTITLE16=Songs By Sinatra
TTITLE17=That Old Feeling
TTITLE18=If I Had You
TTITLE19=Spring Is Here
TTITLE20=Fools Rush In
TTITLE21=When You Awake
TTITLE22=It Never Entered My Mind
TTITLE23=Always
TTITLE24=A Ghost Of A Chance
EXTD=
EXTT0=
EXTT1=
EXTT2=
EXTT3=
EXTT4=
EXTT5=
EXTT6=
EXTT7=
EXTT8=
EXTT9=
EXTT10=
EXTT11=
EXTT12=
EXTT13=
EXTT14=
EXTT15=
EXTT16=
EXTT17=
EXTT18=
EXTT19=
EXTT20=
EXTT21=
EXTT22=
EXTT23=
EXTT24=
PLAYORDER=
